<mxfile host="app.diagrams.net" modified="2021-11-25T01:29:55.643Z" agent="5.0 (Windows)" etag="nU79dopFe3lwZsuWT5he" version="15.8.5" type="github">
  <diagram id="YAd425cXFlQ5n6y8rbPj" name="第 1 页">
    <mxGraphModel dx="782" dy="540" grid="1" gridSize="10" guides="1" tooltips="1" connect="1" arrows="1" fold="1" page="1" pageScale="1" pageWidth="827" pageHeight="1169" math="0" shadow="0">
      <root>
        <mxCell id="0" />
        <mxCell id="1" parent="0" />
        <mxCell id="61BTkl-m2PoENC-lij2Q-1" value="&lt;font style=&quot;font-size: 18px&quot;&gt;&lt;b&gt;C&lt;/b&gt;&lt;/font&gt;" style="ellipse;whiteSpace=wrap;html=1;aspect=fixed;fillColor=#fff2cc;strokeColor=#d6b656;" vertex="1" parent="1">
          <mxGeometry x="430" y="130" width="50" height="50" as="geometry" />
        </mxCell>
        <mxCell id="61BTkl-m2PoENC-lij2Q-2" value="&lt;font style=&quot;font-size: 18px&quot;&gt;&lt;b&gt;A&lt;sub&gt;1&lt;/sub&gt;&lt;/b&gt;&lt;/font&gt;" style="ellipse;whiteSpace=wrap;html=1;aspect=fixed;fillColor=#d5e8d4;strokeColor=#82b366;" vertex="1" parent="1">
          <mxGeometry x="280" y="230" width="50" height="50" as="geometry" />
        </mxCell>
        <mxCell id="61BTkl-m2PoENC-lij2Q-3" value="&lt;font style=&quot;font-size: 18px&quot;&gt;&lt;b&gt;A&lt;sub&gt;2&lt;/sub&gt;&lt;/b&gt;&lt;/font&gt;" style="ellipse;whiteSpace=wrap;html=1;aspect=fixed;fillColor=#d5e8d4;strokeColor=#82b366;" vertex="1" parent="1">
          <mxGeometry x="360" y="230" width="50" height="50" as="geometry" />
        </mxCell>
        <mxCell id="61BTkl-m2PoENC-lij2Q-4" value="&lt;font style=&quot;font-size: 18px&quot;&gt;&lt;b&gt;A&lt;sub&gt;3&lt;/sub&gt;&lt;/b&gt;&lt;/font&gt;" style="ellipse;whiteSpace=wrap;html=1;aspect=fixed;fillColor=#d5e8d4;strokeColor=#82b366;" vertex="1" parent="1">
          <mxGeometry x="440" y="230" width="50" height="50" as="geometry" />
        </mxCell>
        <mxCell id="61BTkl-m2PoENC-lij2Q-5" value="&lt;font style=&quot;font-size: 18px&quot;&gt;&lt;b&gt;A&lt;sub&gt;n&lt;br&gt;&lt;/sub&gt;&lt;/b&gt;&lt;/font&gt;" style="ellipse;whiteSpace=wrap;html=1;aspect=fixed;fillColor=#d5e8d4;strokeColor=#82b366;" vertex="1" parent="1">
          <mxGeometry x="560" y="230" width="50" height="50" as="geometry" />
        </mxCell>
        <mxCell id="61BTkl-m2PoENC-lij2Q-6" value="" style="endArrow=classic;html=1;rounded=0;exitX=0.5;exitY=1;exitDx=0;exitDy=0;entryX=0.5;entryY=0;entryDx=0;entryDy=0;" edge="1" parent="1" source="61BTkl-m2PoENC-lij2Q-1" target="61BTkl-m2PoENC-lij2Q-2">
          <mxGeometry width="50" height="50" relative="1" as="geometry">
            <mxPoint x="370" y="300" as="sourcePoint" />
            <mxPoint x="420" y="250" as="targetPoint" />
          </mxGeometry>
        </mxCell>
        <mxCell id="61BTkl-m2PoENC-lij2Q-7" value="" style="endArrow=classic;html=1;rounded=0;exitX=0.5;exitY=1;exitDx=0;exitDy=0;entryX=0.5;entryY=0;entryDx=0;entryDy=0;" edge="1" parent="1" source="61BTkl-m2PoENC-lij2Q-1" target="61BTkl-m2PoENC-lij2Q-3">
          <mxGeometry width="50" height="50" relative="1" as="geometry">
            <mxPoint x="370" y="300" as="sourcePoint" />
            <mxPoint x="420" y="250" as="targetPoint" />
          </mxGeometry>
        </mxCell>
        <mxCell id="61BTkl-m2PoENC-lij2Q-8" value="" style="endArrow=classic;html=1;rounded=0;exitX=0.5;exitY=1;exitDx=0;exitDy=0;entryX=0.5;entryY=0;entryDx=0;entryDy=0;" edge="1" parent="1" source="61BTkl-m2PoENC-lij2Q-1" target="61BTkl-m2PoENC-lij2Q-4">
          <mxGeometry width="50" height="50" relative="1" as="geometry">
            <mxPoint x="370" y="300" as="sourcePoint" />
            <mxPoint x="420" y="250" as="targetPoint" />
          </mxGeometry>
        </mxCell>
        <mxCell id="61BTkl-m2PoENC-lij2Q-9" value="" style="endArrow=classic;html=1;rounded=0;exitX=0.5;exitY=1;exitDx=0;exitDy=0;entryX=0.5;entryY=0;entryDx=0;entryDy=0;" edge="1" parent="1" source="61BTkl-m2PoENC-lij2Q-1" target="61BTkl-m2PoENC-lij2Q-5">
          <mxGeometry width="50" height="50" relative="1" as="geometry">
            <mxPoint x="360" y="300" as="sourcePoint" />
            <mxPoint x="420" y="250" as="targetPoint" />
          </mxGeometry>
        </mxCell>
        <mxCell id="61BTkl-m2PoENC-lij2Q-10" value="&lt;font style=&quot;font-size: 27px&quot;&gt;...&lt;/font&gt;" style="text;html=1;strokeColor=none;fillColor=none;align=center;verticalAlign=middle;whiteSpace=wrap;rounded=0;fontSize=18;" vertex="1" parent="1">
          <mxGeometry x="495" y="232" width="60" height="30" as="geometry" />
        </mxCell>
      </root>
    </mxGraphModel>
  </diagram>
</mxfile>
